PathFileType	4	(X/Y/Z)	C:\Github\FootballMatch-and-Movement-Analysis\output\test Exam_2026-03-06_135002_tvc2_Sports2D\test Exam_2026-03-06_135002_tvc2_Sports2D_px_person00.trc
DataRate	CameraRate	NumFrames	NumMarkers	Units	OrigDataRate	OrigDataStartFrame	OrigNumFrames
30.0	30.0	13	22	m	30.0	64	516
Frame#	Time	Hip			RHip			RKnee			RAnkle			RBigToe			RSmallToe			RHeel			LHip			LKnee			LAnkle			LBigToe			LSmallToe			LHeel			Neck			Head			Nose			RShoulder			RElbow			RWrist			LShoulder			LElbow			LWrist			
		X1	Y1	Z1	X2	Y2	Z2	X3	Y3	Z3	X4	Y4	Z4	X5	Y5	Z5	X6	Y6	Z6	X7	Y7	Z7	X8	Y8	Z8	X9	Y9	Z9	X10	Y10	Z10	X11	Y11	Z11	X12	Y12	Z12	X13	Y13	Z13	X14	Y14	Z14	X15	Y15	Z15	X16	Y16	Z16	X17	Y17	Z17	X18	Y18	Z18	X19	Y19	Z19	X20	Y20	Z20	X21	Y21	Z21	X22	Y22	Z22
64	2.13747572815534	365.0734910459553	694.5567055945617	0.0	324.13650857612373	700.8304749553973	0.0	315.30271503529957	858.5518691464329	0.0	311.3499175127324	1004.9949098878969	0.0	293.552894319078	1060.1297027851901	0.0	279.12786450843316	1052.5869789119386	0.0	320.1029031424745	1026.1156310993172	0.0	407.5798534237202	701.6751286987623	0.0	414.68156446658656	861.477043443937	0.0	422.9507792856489	998.454429885184	0.0	429.265363740588	1056.7711474430992	0.0	454.1473651560043	1047.833608199729	0.0	418.37193350556197	1016.6084987656504	0.0	368.1515497919394	430.5818304876971	0.0	346.0400879651735	326.4771210658344	0.0	313.08356677180694	382.29548039163865	0.0	311.78544189721765	476.53566853059976	0.0	240.6565554078503	534.7185691048884	0.0	146.55951272462934	508.3469960421287	0.0	445.4217884159966	467.5068660571574	0.0	522.0402052380385	552.8477909892216	0.0	465.1609441879416	636.068474837139	0.0
65	2.170873786407767	364.8287661350251	694.4341030085201	0.0	324.0256397259843	700.427181262242	0.0	315.06321200519864	858.2378611209425	0.0	310.61386367557935	1005.4425242321772	0.0	294.24948583910157	1060.9067464908003	0.0	279.2677412163296	1053.4047676798423	0.0	319.6629296367516	1025.6351575905255	0.0	407.2932420236576	701.5685629767747	0.0	414.1793335122752	861.0409697613622	0.0	422.612680647018	997.1075025452075	0.0	429.56900274908764	1055.9869462700206	0.0	454.1712042083917	1047.4467859573085	0.0	418.1020838408633	1015.3559517568001	0.0	367.99143127734936	430.8774139729416	0.0	345.47224099602636	326.36476528736347	0.0	312.7335675181336	382.0501029708696	0.0	311.52490988409454	476.5997458932801	0.0	239.0123290823942	533.4846044905782	0.0	145.13805992432037	506.6507788889362	0.0	445.3153765390652	467.6375204245638	0.0	521.7172665155466	552.9572814488286	0.0	464.48519693570677	637.3715808375516	0.0
66	2.204271844660194	364.6009012020478	694.3916769512736	0.0	323.9591429522302	701.1629369761384	0.0	314.8402709208871	858.3441056335752	0.0	310.36472067633554	1005.2394408763772	0.0	295.9092261148417	1062.4799405724825	0.0	279.08058087381823	1054.8392534533	0.0	319.3824005681071	1025.3327571286454	0.0	407.1284463129214	702.806033648458	0.0	413.71169230235785	860.8396356144145	0.0	422.5989980667424	996.2823614394113	0.0	429.6810536650941	1055.3713190070155	0.0	454.2642397867003	1047.5012148342134	0.0	418.14373037490344	1014.4228414767915	0.0	367.28527964777993	431.175123364707	0.0	345.0002750748898	326.6647389497398	0.0	311.93610036492544	382.02931751627864	0.0	310.6081472600181	476.5134412858116	0.0	237.93399785047808	532.1926624804979	0.0	144.08129820149549	505.4354807905406	0.0	445.2729475443337	467.6232991512405	0.0	521.6261890381262	552.9533165951843	0.0	463.89108844182704	638.0264691205304	0.0
67	2.2376699029126215	364.6718363254768	694.3950676151618	0.0	323.8586000097071	702.420235048374	0.0	314.5480597946321	858.5080223110447	0.0	310.7348727813613	1005.1294994142493	0.0	296.9488578634812	1063.3123356248323	0.0	278.88540721211314	1054.8370143953541	0.0	319.3029799645275	1025.3923141818693	0.0	407.0288305100194	704.1235789248443	0.0	413.3002727163564	860.3651902650471	0.0	422.56534944684734	996.6901796606718	0.0	429.66787297777034	1054.8307974482852	0.0	454.3315805428141	1047.4941182252574	0.0	418.0675544873801	1015.2268856210538	0.0	366.48287454075955	431.1511003096479	0.0	344.60531752957576	327.3376634581275	0.0	310.7228383887995	382.07205135436107	0.0	309.9561996396907	476.557435337025	0.0	237.26342184812316	531.228387357064	0.0	143.31100177710616	504.8557501565175	0.0	445.2428122867543	467.53298485097366	0.0	521.6463801616667	552.9429911756092	0.0	463.5721203867445	638.2647054914369	0.0
68	2.2710679611650484	364.6662043325132	694.5745167489059	0.0	323.6731763866005	703.1952486155483	0.0	314.4835673833411	858.6852356667994	0.0	311.4297890638841	1005.5016960590442	0.0	296.9752617548259	1063.430222538114	0.0	278.70047483767866	1054.0463966789293	0.0	319.37829526144276	1025.6787613425538	0.0	406.83946070129775	704.458700741694	0.0	413.19466955304256	860.1784829874719	0.0	422.5954116187658	997.597929455907	0.0	429.5723281183585	1054.467367695596	0.0	454.2709532920824	1047.478348048489	0.0	417.8390766267076	1017.0227008925432	0.0	366.0517296730737	430.95407886493706	0.0	344.492997805581	327.98094155034164	0.0	309.81210796862933	382.3495420885107	0.0	310.05852594451653	476.8435227863283	0.0	236.6375936881791	530.7502982548696	0.0	142.80058795706447	504.09012593374695	0.0	445.10162521032737	467.65182503389224	0.0	521.4998933592104	552.9470523534274	0.0	463.3341518387508	638.5725878246575	0.0
69	2.3044660194174758	364.38507811675436	695.041736445149	0.0	323.5663627468418	703.2704035273064	0.0	314.97754953911624	859.0002865165973	0.0	311.9076505416141	1005.7193892490836	0.0	296.413506870951	1063.0789257649174	0.0	278.45980460371754	1054.0434758920433	0.0	319.71061036956667	1025.7675751248098	0.0	406.67175951444864	704.357932117952	0.0	413.683261051239	860.6817121073451	0.0	422.9475868661402	997.8919394062152	0.0	429.41749800309117	1054.3629410466037	0.0	454.11281987732826	1047.5966576207022	0.0	417.6865941951681	1017.874211463863	0.0	365.9067050625672	430.92790368104966	0.0	344.5909381056883	328.2613137504792	0.0	309.5666478538756	382.9319252311549	0.0	310.18273956331586	477.3369422485889	0.0	235.72236102706836	530.5393320315814	0.0	142.63513973682808	502.58375458988473	0.0	444.8933149357689	468.1834476417705	0.0	521.1118809605572	552.8267643422959	0.0	462.9949260071121	638.7939694670101	0.0
70	2.337864077669903	364.270951383266	695.5373037376843	0.0	323.7710187198687	702.9303154503909	0.0	315.65584966218324	859.3787455424133	0.0	311.8660919731073	1005.6041661254877	0.0	295.5038888807249	1062.1935063705114	0.0	278.168477699787	1054.4302256751307	0.0	320.16336740665787	1025.750896292921	0.0	406.812042101566	704.4301792446822	0.0	414.37722233346074	861.1962782461178	0.0	423.34851812234615	997.8258557608943	0.0	429.42073020959936	1054.3776037449231	0.0	454.0779073027302	1047.8679454182134	0.0	417.61617752428356	1017.4435488535825	0.0	365.69111870873314	431.01363724022514	0.0	344.3359066082872	328.10275529325867	0.0	309.51307234644634	383.37527245151074	0.0	309.7930379669658	477.8583070063263	0.0	234.68111504882256	530.5385739999707	0.0	142.62833826742028	501.2461047079911	0.0	444.7019575692223	468.77231787003717	0.0	520.643697248219	552.5516351222888	0.0	462.9503000363587	638.6555331767503	0.0
71	2.37126213592233	364.57315093932004	695.5677229745535	0.0	324.2109692906288	702.4181356211641	0.0	315.8841696764639	859.5138540797699	0.0	311.7209493618004	1005.8511868281659	0.0	294.733330494082	1061.3789364924473	0.0	278.10087902141186	1054.4571965019475	0.0	320.50086751107125	1026.0595442630122	0.0	407.2579585493005	704.350836132051	0.0	414.661816473083	861.1714085518322	0.0	423.3440937585917	998.115942985164	0.0	429.7296801049711	1054.5107250185672	0.0	454.29919356174105	1048.1900438296302	0.0	417.48394903327403	1016.831624889961	0.0	365.34658670024885	430.96480027871905	0.0	343.66092011024153	327.62345177931905	0.0	309.29003063011334	383.29179061618413	0.0	309.2045607972383	478.1153465551379	0.0	233.83720834425344	530.6719528756844	0.0	142.35897482278088	500.9967439306271	0.0	444.37384533634645	468.8310540477407	0.0	520.3750486106369	552.2970957480724	0.0	463.58569023952236	638.5563833788636	0.0
72	2.4046601941747574	364.9482923627972	695.1137231927279	0.0	324.5601263822798	701.9006056015817	0.0	315.7070078573545	859.322004493947	0.0	312.04343919568714	1006.2052272471915	0.0	294.66010607365234	1061.4167653276113	0.0	278.54053602994486	1054.6703514735889	0.0	320.7483212426597	1026.6265594215786	0.0	407.6766859242051	703.9497281423783	0.0	414.5921772571886	861.334242844802	0.0	423.1505393958824	998.5579396787256	0.0	430.1487732322199	1054.917180609823	0.0	454.64852297901007	1048.3759571527758	0.0	417.3798869190226	1016.6531894089542	0.0	365.14217220752187	430.8700974618574	0.0	343.18443946574064	327.08431179373736	0.0	309.0903052610861	383.1800906542652	0.0	308.83523724516874	477.9970500665727	0.0	233.26030520429205	530.5304762756094	0.0	141.5349255317183	501.2546190916094	0.0	443.7759347470425	468.4021832874495	0.0	520.3665054369357	552.1472990083131	0.0	464.5468347041112	638.6354518054134	0.0
73	2.4380582524271843	365.10213559508395	694.8826089283306	0.0	324.6524095041209	701.5325691882183	0.0	315.55426775324	859.1882625326737	0.0	312.5809318077871	1005.7625569015775	0.0	295.12966084870914	1061.7977354789157	0.0	279.2721490763816	1055.082262382628	0.0	320.842443280557	1026.9676001541309	0.0	407.8373392123448	703.6771611152656	0.0	414.51582709758804	862.4193034785101	0.0	423.2053199194812	998.8102075699301	0.0	430.3882702615931	1055.4019535340894	0.0	454.9816645046218	1048.413131593135	0.0	417.6132428979007	1016.790963961916	0.0	365.1487487266684	431.072680447723	0.0	343.16387270057163	326.6890369893912	0.0	309.04641751208595	383.4806002154351	0.0	308.7272315360061	477.6114531101925	0.0	233.4007171294875	530.3910163960657	0.0	141.1041699960285	500.9360400332636	0.0	443.279141874686	468.0019843807788	0.0	520.3392567735564	552.0742734341071	0.0	465.17367786874433	638.4784224506341	0.0
74	2.4714563106796117	365.0985211157073	695.4691892126807	0.0	324.5058893019502	701.3422596130029	0.0	315.56243764287274	859.4902785298956	0.0	312.7190172684746	1005.1325104222652	0.0	295.6527317394416	1062.0657835059112	0.0	279.73949636407406	1055.1773454186766	0.0	320.83510094938043	1026.9544993669806	0.0	407.80482649284073	703.8068597381583	0.0	414.51850417633887	863.7665319279886	0.0	423.5104239775394	999.0171951438258	0.0	430.3113739803139	1055.7537069188302	0.0	455.30900196889337	1048.4847246226227	0.0	418.2808546776599	1016.9447175624271	0.0	365.0375665430645	431.67650165882753	0.0	343.184891391533	326.4535777049699	0.0	308.8371447933937	383.2031600152706	0.0	308.7153677114132	477.13722943938853	0.0	235.6263011045757	531.7020318768316	0.0	144.15016529656597	499.5805451428908	0.0	443.1456877279054	467.82279819664586	0.0	520.2170602838307	552.0948895518518	0.0	465.4418396371221	638.171460639082	0.0
75	2.504854368932039	365.0735845149788	696.4128214060031	0.0	324.20989478893534	701.2805839643748	0.0	315.5932098042763	860.0883843812364	0.0	312.6055189350461	1005.289857278235	0.0	295.76396811103075	1063.2406456577394	0.0	279.4828946745242	1055.5921682559397	0.0	321.1816178186119	1027.0554425065302	0.0	407.7698190968751	703.9906001129091	0.0	414.57755318490564	864.3712876096043	0.0	423.91312183512923	999.2142408843023	0.0	429.9143997042954	1056.3800316047473	0.0	455.430846820831	1048.601497964116	0.0	419.2296774206618	1016.734238621438	0.0	364.4426128337601	432.29626222677064	0.0	342.86863387893493	326.295948175803	0.0	308.0028812860925	381.51367357185154	0.0	308.7791481437014	476.82110006880055	0.0	241.11088232368314	535.4242199471489	0.0	153.77171502782704	496.89376988637633	0.0	442.8502116457921	467.74408871552237	0.0	520.3980704322848	552.0029189783312	0.0	465.7567654812782	638.0932557418278	0.0
76	2.538252427184466	364.9813426082099	696.58150919264	0.0	324.0434902691874	701.355186547714	0.0	315.56194294623754	860.4925166167841	0.0	312.616837066731	1005.8177156696903	0.0	294.755100989223	1065.448685946832	0.0	278.38487018562904	1056.763380317769	0.0	321.71768217691556	1028.1130000934706	0.0	407.76074035401393	703.6015736791019	0.0	414.61130814048204	864.2189468660785	0.0	424.1298774815419	999.1827112817238	0.0	429.4119017025739	1057.5141417891286	0.0	454.7092138392453	1048.626254554347	0.0	420.25213474320174	1016.233454327596	0.0	363.4132162102993	432.25669817221586	0.0	342.0095019574816	326.0189997531626	0.0	306.66136800078624	379.6261322797916	0.0	309.0726038125736	476.81774201080026	0.0	249.02085823953547	540.803310074192	0.0	169.87265927201756	492.75383599991153	0.0	442.1140554468283	467.7335653538561	0.0	521.059577906401	551.5374064539379	0.0	465.98263351218014	638.2154613195381	0.0
